<?xml version="1.0" encoding="utf-8"?>
<!-- Generator: Adobe Illustrator 23.0.5, SVG Export Plug-In . SVG Version: 6.00 Build 0)  -->
<svg version="1.1" id="Layer_1" xmlns="http://www.w3.org/2000/svg" xmlns:xlink="http://www.w3.org/1999/xlink" x="0px" y="0px"
	 width="1280px" height="900px" viewBox="0 0 1280 900" style="enable-background:new 0 0 1280 900;" xml:space="preserve">
<style type="text/css">
	.st0{fill:#FFFFFF;}
	.st1{display:none;}
	.st2{display:inline;fill:#3F51B5;}
	.st3{display:inline;fill:#FFFFFF;}
	.st4{display:inline;fill:#131B26;}
	.st5{display:inline;fill:#3284FF;}
	.st6{display:inline;fill:#FFCC00;}
	.st7{display:inline;fill:#FF2B51;}
	.st8{fill:#3284FF;}
	.st9{fill:#FFCC00;}
	.st10{fill:#FF2B51;}
</style>
<path class="st0" d="M508.96,679.5c-54.29,0-98.46-44.17-98.46-98.46V318.96c0-54.29,44.17-98.46,98.46-98.46h262.07
	c54.29,0,98.46,44.17,98.46,98.46v262.07c0,54.29-44.17,98.46-98.46,98.46H508.96z"/>
<g class="st1">
	<path class="st2" d="M771.04,658.5H508.96c-42.78,0-77.46-34.68-77.46-77.46V318.96c0-42.78,34.68-77.46,77.46-77.46h262.07
		c42.78,0,77.46,34.68,77.46,77.46v262.07C848.5,623.82,813.82,658.5,771.04,658.5z"/>
	<path class="st3" d="M675.86,329.59c0-3.75,0.6-7.36,1.69-10.75l-148.7,4.56c-3.34,0.1-6,2.84-6,6.18v0c0,3.34,2.66,6.08,6,6.18
		l148.7,4.56C676.46,336.95,675.86,333.34,675.86,329.59z"/>
	<path class="st3" d="M712.69,358.53c49.41-2.12,59.17-49.94,59.17-49.94s-17.08,13.01-43.99-2.48c-1.22-0.89-2.52-1.68-3.87-2.37
		c0,0,0,0,0,0v0c-3.95-2.01-8.41-3.15-13.14-3.15c-16.02,0-29,12.98-29,29s12.98,29,29,29
		C711.48,358.59,712.08,358.57,712.69,358.53z M722.86,315.59c-15-9-28.26-2.26-28.26-2.26c4.16-4.16,9.91-6.74,16.26-6.74
		c3.66,0,7.16,0.84,10.42,2.5c1.07,0.54,2.1,1.18,3.07,1.88l0.26,0.19l0.27,0.16c10.04,5.78,18.94,8,26.36,8.36
		C751.24,319.67,737.86,324.59,722.86,315.59z"/>
	<path class="st3" d="M713.73,599.41c-24.78,0-39.11-12.9-39.11-28.82c0-15.91,14.33-28.82,39.11-28.82s50.63,12.9,50.63,28.82
		C764.36,586.51,738.51,599.41,713.73,599.41z"/>
	<path class="st3" d="M669.17,570.59c0-2.65,0.37-5.21,1.07-7.67l-136.43-5.81c-7.88-0.34-14.45,5.96-14.45,13.85
		s6.57,14.18,14.45,13.85L670.47,579C669.62,576.32,669.17,573.5,669.17,570.59z"/>
	<path class="st3" d="M553.21,345.09v22.04l-13.98,8.07l-13.98-8.07v-21.92c-10.16,5.15-17.12,15.69-17.12,27.86
		c0,17.24,13.98,31.22,31.22,31.22s31.22-13.98,31.22-31.22C570.58,360.81,563.51,350.2,553.21,345.09z"/>
	<path class="st3" d="M539.36,411.09c-3.94,0-7.74-0.6-11.32-1.7v81.6c3.55-1.22,7.36-1.9,11.32-1.9c3.71,0,7.28,0.59,10.63,1.67
		v-81.17C546.62,410.56,543.05,411.09,539.36,411.09z"/>
	<path class="st3" d="M539.36,497.94c-14.29,0-25.87,11.58-25.87,25.87c0,14.29,11.58,25.87,25.87,25.87s25.87-11.58,25.87-25.87
		C565.23,509.52,553.65,497.94,539.36,497.94z M545.86,534.83h-13l-6.5-11.26l6.5-11.26h13l6.5,11.26L545.86,534.83z"/>
</g>
<g class="st1">
	<path class="st4" d="M771.04,658.5H508.96c-42.78,0-77.46-34.68-77.46-77.46V318.96c0-42.78,34.68-77.46,77.46-77.46h262.07
		c42.78,0,77.46,34.68,77.46,77.46v262.07C848.5,623.82,813.82,658.5,771.04,658.5z"/>
	<path class="st5" d="M675.86,329.59c0-3.75,0.6-7.36,1.69-10.75l-148.7,4.56c-3.34,0.1-6,2.84-6,6.18v0c0,3.34,2.66,6.08,6,6.18
		l148.7,4.56C676.46,336.95,675.86,333.34,675.86,329.59z"/>
	<path class="st5" d="M712.69,358.53c49.41-2.12,59.17-49.94,59.17-49.94s-17.08,13.01-43.99-2.48c-1.22-0.89-2.52-1.68-3.87-2.37
		c0,0,0,0,0,0v0c-3.95-2.01-8.41-3.15-13.14-3.15c-16.02,0-29,12.98-29,29s12.98,29,29,29
		C711.48,358.59,712.08,358.57,712.69,358.53z M722.86,315.59c-15-9-28.26-2.26-28.26-2.26c4.16-4.16,9.91-6.74,16.26-6.74
		c3.66,0,7.16,0.84,10.42,2.5c1.07,0.54,2.1,1.18,3.07,1.88l0.26,0.19l0.27,0.16c10.04,5.78,18.94,8,26.36,8.36
		C751.24,319.67,737.86,324.59,722.86,315.59z"/>
	<path class="st6" d="M713.73,599.41c-24.78,0-39.11-12.9-39.11-28.82c0-15.91,14.33-28.82,39.11-28.82s50.63,12.9,50.63,28.82
		C764.36,586.51,738.51,599.41,713.73,599.41z"/>
	<path class="st6" d="M669.17,570.59c0-2.65,0.37-5.21,1.07-7.67l-136.43-5.81c-7.88-0.34-14.45,5.96-14.45,13.85
		s6.57,14.18,14.45,13.85L670.47,579C669.62,576.32,669.17,573.5,669.17,570.59z"/>
	<path class="st7" d="M553.21,345.09v22.04l-13.98,8.07l-13.98-8.07v-21.92c-10.16,5.15-17.12,15.69-17.12,27.86
		c0,17.24,13.98,31.22,31.22,31.22s31.22-13.98,31.22-31.22C570.58,360.81,563.51,350.2,553.21,345.09z"/>
	<path class="st7" d="M539.36,411.09c-3.94,0-7.74-0.6-11.32-1.7v81.6c3.55-1.22,7.36-1.9,11.32-1.9c3.71,0,7.28,0.59,10.63,1.67
		v-81.17C546.62,410.56,543.05,411.09,539.36,411.09z"/>
	<path class="st7" d="M539.36,497.94c-14.29,0-25.87,11.58-25.87,25.87c0,14.29,11.58,25.87,25.87,25.87s25.87-11.58,25.87-25.87
		C565.23,509.52,553.65,497.94,539.36,497.94z M545.86,534.83h-13l-6.5-11.26l6.5-11.26h13l6.5,11.26L545.86,534.83z"/>
</g>
<path d="M710.86,372.59c0.8,0,1.64-0.03,2.56-0.08c31.12-1.38,49.17-17.98,58.83-31.68c10.02-14.2,13.02-27.92,13.33-29.44
	c1.2-5.87-1.14-12.11-6.31-15.14c-5.11-3-11.23-2.71-15.76,1.08c-1.75,1.09-11.58,6.23-28.11-3.05c-1.61-1.12-3.3-2.13-5.05-3.02
	c-6-3.06-12.74-4.67-19.49-4.67c-14.52,0-27.38,7.25-35.17,18.31l-147.26,4.52c-10.97,0.34-19.57,9.2-19.57,20.18
	c0,3.04,0.68,5.9,1.86,8.48c-10.4,8.48-16.58,21.19-16.58,35.01c0,15.56,7.9,29.31,19.9,37.45v80.46c0,0.65,0.06,1.3,0.15,1.93
	c-8.96,7.32-14.69,18.44-14.69,30.89c0,11.43,4.84,21.75,12.58,29.02c-4.29,5.02-6.71,11.49-6.71,18.13
	c0,7.56,3.13,14.89,8.58,20.11c5.17,4.96,12.15,7.75,19.3,7.75c0.39,0,0.78-0.01,1.17-0.02l133.35-5.67
	c2.32,3.27,5.16,6.26,8.51,8.88c9.56,7.46,22.51,11.4,37.46,11.4c31.21,0,64.63-17.2,64.63-42.81c0-25.61-33.42-42.82-64.63-42.82
	c-14.95,0-27.91,3.94-37.46,11.41c-3.6,2.81-6.61,6.05-9.01,9.6l-94.01-4c3.79-6.1,5.98-13.28,5.98-20.97
	c0-12.74-6.01-24.09-15.33-31.39c0.07-0.55,0.1-1.1,0.1-1.66v-79.79c12.38-8.08,20.59-22.04,20.59-37.89
	c0-7.8-1.97-15.23-5.55-21.76l96.65,2.97C683.48,365.35,696.34,372.59,710.86,372.59z"/>
<path class="st8" d="M675.86,329.59c0-3.75,0.6-7.36,1.69-10.75l-148.7,4.56c-3.34,0.1-6,2.84-6,6.18v0c0,3.34,2.66,6.08,6,6.18
	l148.7,4.56C676.46,336.95,675.86,333.34,675.86,329.59z"/>
<path class="st8" d="M712.69,358.53c49.41-2.12,59.17-49.94,59.17-49.94s-17.08,13.01-43.99-2.48c-1.22-0.89-2.52-1.68-3.87-2.37
	c0,0,0,0,0,0v0c-3.95-2.01-8.41-3.15-13.14-3.15c-16.02,0-29,12.98-29,29s12.98,29,29,29C711.48,358.59,712.08,358.57,712.69,358.53
	z"/>
<path class="st0" d="M722.86,315.59c-15-9-28.26-2.26-28.26-2.26c4.16-4.16,9.91-6.74,16.26-6.74c3.66,0,7.16,0.84,10.42,2.5
	c1.07,0.54,2.1,1.18,3.07,1.88l0.26,0.19l0.27,0.16c10.04,5.78,18.94,8,26.36,8.36C751.24,319.67,737.86,324.59,722.86,315.59z"/>
<path class="st9" d="M713.73,599.41c-24.78,0-39.11-12.9-39.11-28.82c0-15.91,14.33-28.82,39.11-28.82s50.63,12.9,50.63,28.82
	C764.36,586.51,738.51,599.41,713.73,599.41z"/>
<path class="st0" d="M726.78,548.98c3.73-0.09,7.44,0.54,11.02,1.64c3.57,1.13,7.04,2.76,10.14,5.05c1.52,1.18,3.01,2.44,4.26,3.98
	c1.29,1.48,2.33,3.24,3.05,5.11c0.73,1.89,0.93,3.97,0.73,5.93c-0.29,1.97-1.05,3.8-2.23,5.25c0.37-1.83,0.53-3.6,0.27-5.27
	c-0.32-1.66-0.8-3.21-1.63-4.62c-1.63-2.82-4.12-5.13-6.83-7.18c-2.74-2.04-5.78-3.76-8.93-5.36
	C733.47,551.93,730.17,550.51,726.78,548.98z"/>
<path class="st9" d="M669.17,570.59c0-2.65,0.37-5.21,1.07-7.67l-136.43-5.81c-7.88-0.34-14.45,5.96-14.45,13.85
	s6.57,14.18,14.45,13.85L670.47,579C669.62,576.32,669.17,573.5,669.17,570.59z"/>
<path class="st10" d="M553.21,345.09v22.04l-13.98,8.07l-13.98-8.07v-21.92c-10.16,5.15-17.12,15.69-17.12,27.86
	c0,17.24,13.98,31.22,31.22,31.22s31.22-13.98,31.22-31.22C570.58,360.81,563.51,350.2,553.21,345.09z"/>
<path class="st10" d="M539.36,411.09c-3.94,0-7.74-0.6-11.32-1.7v81.6c3.55-1.22,7.36-1.9,11.32-1.9c3.71,0,7.28,0.59,10.63,1.67
	v-81.17C546.62,410.56,543.05,411.09,539.36,411.09z"/>
<path class="st10" d="M539.36,497.94c-14.29,0-25.87,11.58-25.87,25.87c0,14.29,11.58,25.87,25.87,25.87s25.87-11.58,25.87-25.87
	C565.23,509.52,553.65,497.94,539.36,497.94z M545.86,534.83h-13l-6.5-11.26l6.5-11.26h13l6.5,11.26L545.86,534.83z"/>
<g>
	<g>
		<g>
			<path class="st0" d="M546,426.5h-14c-0.83,0-1.5-0.67-1.5-1.5s0.67-1.5,1.5-1.5h14c0.83,0,1.5,0.67,1.5,1.5
				S546.83,426.5,546,426.5z"/>
		</g>
		<g>
			<path class="st0" d="M546,438.5h-14c-0.83,0-1.5-0.67-1.5-1.5s0.67-1.5,1.5-1.5h14c0.83,0,1.5,0.67,1.5,1.5
				S546.83,438.5,546,438.5z"/>
		</g>
		<g>
			<path class="st0" d="M546,450.5h-14c-0.83,0-1.5-0.67-1.5-1.5s0.67-1.5,1.5-1.5h14c0.83,0,1.5,0.67,1.5,1.5
				S546.83,450.5,546,450.5z"/>
		</g>
		<g>
			<path class="st0" d="M546,462.5h-14c-0.83,0-1.5-0.67-1.5-1.5s0.67-1.5,1.5-1.5h14c0.83,0,1.5,0.67,1.5,1.5
				S546.83,462.5,546,462.5z"/>
		</g>
		<g>
			<path class="st0" d="M546,474.5h-14c-0.83,0-1.5-0.67-1.5-1.5s0.67-1.5,1.5-1.5h14c0.83,0,1.5,0.67,1.5,1.5
				S546.83,474.5,546,474.5z"/>
		</g>
	</g>
</g>
</svg>
